<svg xmlns="http://www.w3.org/2000/svg" viewBox="0 0 512 512"><defs><style>.cls-1{fill:#e2e4e9;}</style></defs><g id="Layer_2" data-name="Layer 2"><g id="Capa_1" data-name="Capa 1"><path class="cls-1" d="M446.58,0H65.43A65.5,65.5,0,0,0,0,65.43V446.57A65.5,65.5,0,0,0,65.43,512H446.58A65.5,65.5,0,0,0,512,446.57V65.43A65.5,65.5,0,0,0,446.58,0Zm35.26,446.58a35.3,35.3,0,0,1-35.26,35.26H65.43a35.31,35.31,0,0,1-35.27-35.26v-55l99.25-84.45A9.75,9.75,0,0,1,142,307l62.18,51.63a15.07,15.07,0,0,0,20.3-.95l147.73-148a9.77,9.77,0,0,1,14.49.74L481.84,327.7V446.58Zm0-166.72L410.08,191.5a39.93,39.93,0,0,0-59.24-3l-138,138.22-51.59-42.84a39.85,39.85,0,0,0-51.37.31L30.16,352V65.43A35.31,35.31,0,0,1,65.43,30.16H446.58a35.31,35.31,0,0,1,35.26,35.27Z"/><path class="cls-1" d="M161.17,63a72.72,72.72,0,1,0,72.72,72.72A72.8,72.8,0,0,0,161.17,63Zm0,115.27a42.56,42.56,0,1,1,42.56-42.55A42.6,42.6,0,0,1,161.17,178.26Z"/></g></g></svg>