<?xml version="1.0" encoding="utf-8"?>
<!-- Generator: Adobe Illustrator 24.3.0, SVG Export Plug-In . SVG Version: 6.00 Build 0)  -->
<svg version="1.1" id="Layer_1" xmlns="http://www.w3.org/2000/svg" xmlns:xlink="http://www.w3.org/1999/xlink" x="0px" y="0px"
	 viewBox="0 0 512 512" style="enable-background:new 0 0 512 512;" xml:space="preserve">
<style type="text/css">
	.st0{fill:#7C8186;}
</style>
<path class="st0" d="M506,237.5c-7.8-12.6-21.5-20-36.8-20h-38.1v-69.9c0-16.9-14.2-30.6-31.7-30.6H213c-0.3,0-0.5-0.1-0.5-0.1
	l-33.4-46.7C173.2,61.9,163.4,57,153,57H31.7C14.2,57,0,70.7,0,87.6v335.1C0,440,14.6,454,32.5,454h377.4c5.9,0,11-3.4,13.4-8.3l0,0
	l84.6-169.8C514,263.6,513.3,249.2,506,237.5z M31.7,87H153c0.9,0,1.5,0.4,1.7,0.7l33.4,46.7c5.6,7.9,14.9,12.6,24.9,12.6h186.4
	c1,0,1.6,0.5,1.7,0.7v69.8H129.7c-16.8,0-32.1,9.5-39,24.2L30,371.5V87.7C30.1,87.5,30.7,87,31.7,87z M481,262.5L400.6,424h-362
	l79.3-169.7c1.9-4.1,6.7-6.9,11.8-6.9h339.6c4.8,0,9,2.2,11.3,5.8C481.8,255.3,482.9,258.6,481,262.5z"/>
</svg>
